<?xml version="1.0" ?><svg fill="none" height="24" viewBox="0 0 24 24" width="24" xmlns="http://www.w3.org/2000/svg"><path clip-rule="evenodd" d="M14.8783 4.08306C12.9851 3.63898 11.0149 3.63898 9.12171 4.08306C6.62161 4.6695 4.6695 6.6216 4.08306 9.12171C3.63898 11.0149 3.63898 12.9851 4.08306 14.8783C4.6695 17.3784 6.62161 19.3305 9.12171 19.9169C11.0149 20.361 12.9851 20.361 14.8783 19.9169C17.3784 19.3305 19.3305 17.3784 19.9169 14.8783C20.361 12.9851 20.361 11.0149 19.9169 9.12171C19.3305 6.62161 17.3784 4.6695 14.8783 4.08306ZM8.77916 2.6227C10.8976 2.12577 13.1024 2.12577 15.2208 2.6227C18.2756 3.33924 20.6608 5.72441 21.3773 8.77916C21.8742 10.8976 21.8742 13.1024 21.3773 15.2208C20.6608 18.2756 18.2756 20.6608 15.2208 21.3773C13.1024 21.8742 10.8976 21.8742 8.77916 21.3773C5.72441 20.6608 3.33924 18.2756 2.6227 15.2209C2.12577 13.1024 2.12577 10.8976 2.6227 8.77915C3.33924 5.72441 5.72441 3.33924 8.77916 2.6227Z" fill="black" fill-rule="evenodd"/><path d="M9.05485 12C9.05485 12.5523 8.59486 13 8.02742 13C7.45999 13 7 12.5523 7 12C7 11.4477 7.45999 11 8.02742 11C8.59486 11 9.05485 11.4477 9.05485 12Z" fill="black"/><path d="M13.0274 12C13.0274 12.5523 12.5674 13 12 13C11.4326 13 10.9726 12.5523 10.9726 12C10.9726 11.4477 11.4326 11 12 11C12.5674 11 13.0274 11.4477 13.0274 12Z" fill="black"/><path d="M17 12C17 12.5523 16.54 13 15.9726 13C15.4051 13 14.9452 12.5523 14.9452 12C14.9452 11.4477 15.4051 11 15.9726 11C16.54 11 17 11.4477 17 12Z" fill="black"/></svg>